{
  "accessors": [
    {
      "bufferView": 2,
      "componentType": 5126,
      "count": 1906,
      "max": [
        0.08628474175930023,
        0.17889055609703064,
        0.284288614988327
      ],
      "min": [
        -0.08628474175930023,
        -0.33771106600761414,
        -0.010049473494291306
      ],
      "type": "VEC3"
    },
    {
      "bufferView": 2,
      "byteOffset": 22872,
      "componentType": 5126,
      "count": 1906,
      "max": [
        0.9996545910835266,
        0.9998920559883118,
        1.0
      ],
      "min": [
        -0.9996545910835266,
        -0.9982090592384338,
        -1.0
      ],
      "type": "VEC3"
    },
    {
      "bufferView": 3,
      "componentType": 5126,
      "count": 1906,
      "max": [
        0.9928664565086365,
        0.9999648928642273,
        0.9993624687194824,
        1.0
      ],
      "min": [
        -1.0,
        -0.9975823163986206,
        -0.9874643683433533,
        -1.0
      ],
      "type": "VEC4"
    },
    {
      "bufferView": 1,
      "componentType": 5126,
      "count": 1906,
      "max": [
        0.9925340414047241,
        0.9997261762619019
      ],
      "min": [
        0.0002738520270213485,
        0.0002738520270213485
      ],
      "type": "VEC2"
    },
    {
      "bufferView": 1,
      "byteOffset": 15248,
      "componentType": 5126,
      "count": 1906,
      "max": [
        0.9925340414047241,
        0.9997261762619019
      ],
      "min": [
        0.0002738520270213485,
        0.0002738520270213485
      ],
      "type": "VEC2"
    },
    {
      "bufferView": 1,
      "byteOffset": 30496,
      "componentType": 5126,
      "count": 1906,
      "max": [
        0.9925340414047241,
        0.9997261762619019
      ],
      "min": [
        0.0002738520270213485,
        0.0002738520270213485
      ],
      "type": "VEC2"
    },
    {
      "bufferView": 0,
      "componentType": 5125,
      "count": 8628,
      "type": "SCALAR"
    }
  ],
  "asset": {
    "extras": {
      "author": "vojtaklemperer (https://sketchfab.com/vojtaklemperer)",
      "license": "CC-BY-4.0 (http://creativecommons.org/licenses/by/4.0/)",
      "source": "https://sketchfab.com/3d-models/wooden-goose-statue-mid-poly-1537e0ce8df542ba9c4ea1ac70f3e7f9",
      "title": "wooden goose statue - mid poly"
    },
    "generator": "Sketchfab-12.68.0",
    "version": "2.0"
  },
  "bufferViews": [
    {
      "buffer": 0,
      "byteLength": 34512,
      "name": "floatBufferViews",
      "target": 34963
    },
    {
      "buffer": 0,
      "byteLength": 45744,
      "byteOffset": 34512,
      "byteStride": 8,
      "name": "floatBufferViews",
      "target": 34962
    },
    {
      "buffer": 0,
      "byteLength": 45744,
      "byteOffset": 80256,
      "byteStride": 12,
      "name": "floatBufferViews",
      "target": 34962
    },
    {
      "buffer": 0,
      "byteLength": 30496,
      "byteOffset": 126000,
      "byteStride": 16,
      "name": "floatBufferViews",
      "target": 34962
    }
  ],
  "buffers": [
    {
      "byteLength": 156496,
      "uri": "scene.bin"
    }
  ],
  "images": [
    {
      "uri": "textures/goose_baseColor.png"
    },
    {
      "uri": "textures/goose_metallicRoughness.png"
    },
    {
      "uri": "textures/goose_normal.png"
    }
  ],
  "materials": [
    {
      "doubleSided": true,
      "name": "goose",
      "normalTexture": {
        "index": 2
      },
      "pbrMetallicRoughness": {
        "baseColorTexture": {
          "index": 0
        },
        "metallicRoughnessTexture": {
          "index": 1
        }
      }
    }
  ],
  "meshes": [
    {
      "name": "goose_goose_0",
      "primitives": [
        {
          "attributes": {
            "NORMAL": 1,
            "POSITION": 0,
            "TANGENT": 2,
            "TEXCOORD_0": 3,
            "TEXCOORD_1": 4,
            "TEXCOORD_2": 5
          },
          "indices": 6,
          "material": 0,
          "mode": 4
        }
      ]
    }
  ],
  "nodes": [
    {
      "children": [
        1
      ],
      "matrix": [
        1.0,
        0.0,
        0.0,
        0.0,
        0.0,
        2.220446049250313e-16,
        -1.0,
        0.0,
        0.0,
        1.0,
        2.220446049250313e-16,
        0.0,
        0.0,
        0.0,
        0.0,
        1.0
      ],
      "name": "Sketchfab_model"
    },
    {
      "children": [
        2
      ],
      "matrix": [
        1.0,
        0.0,
        0.0,
        0.0,
        0.0,
        0.0,
        1.0,
        0.0,
        0.0,
        -1.0,
        0.0,
        0.0,
        0.0,
        0.0,
        0.0,
        1.0
      ],
      "name": "52dc86674dba4db1825ff413eb4a472f.fbx"
    },
    {
      "children": [
        3
      ],
      "name": "RootNode"
    },
    {
      "children": [
        4
      ],
      "matrix": [
        100.0,
        0.0,
        0.0,
        0.0,
        -0.0,
        -1.629206793918314e-05,
        -99.99999999999868,
        0.0,
        0.0,
        99.99999999999868,
        -1.629206793918314e-05,
        0.0,
        -2.6217124920123978e-14,
        1.0085768699645996,
        -1.4621803760528564,
        1.0
      ],
      "name": "goose"
    },
    {
      "mesh": 0,
      "name": "goose_goose_0"
    }
  ],
  "samplers": [
    {
      "magFilter": 9729,
      "minFilter": 9987,
      "wrapS": 10497,
      "wrapT": 10497
    }
  ],
  "scene": 0,
  "scenes": [
    {
      "name": "Sketchfab_Scene",
      "nodes": [
        0
      ]
    }
  ],
  "textures": [
    {
      "sampler": 0,
      "source": 0
    },
    {
      "sampler": 0,
      "source": 1
    },
    {
      "sampler": 0,
      "source": 2
    }
  ]
}
